<?xml version="1.0" encoding="UTF-8"?>
<svg version="1.1" viewBox="0 0 1024 1536" width="1024" height="1536" xmlns="http://www.w3.org/2000/svg">
<path transform="translate(506,505)" d="m0 0 5 1 39 26 20 13 42 28 14 9 21 14 8 6 1 2v78l-5-2-20-12-33-22-23-15-17-11-29-19-18-12-4-2-38 25-17 11-19 12-3 2 10 7 30 20 22 15 24 16 16 11 13 9 15 10 28 19 33 22 14 10 20 13 1 2v71l-11 8-11 7-23 16-15 10-16 11-33 22-13 9-15 10-7 5-6-1-39-26-17-12-17-11-32-22-40-27v-84l11 6 11 8 12 8 19 13 16 11 28 19 17 12 23 16 12 8 11-7 14-10 12-8 20-14 14-10h2l-5-5-20-13-48-32-44-29-15-10-29-19-60-40-1-1v-79l18-12 23-15 21-14 20-13 18-12 41-27z" fill="#B371FC"/>
<path transform="translate(504,233)" d="m0 0 13 2 9 5 8 9 4 11v11l-2 8-5 8-8 7-5 3-1 71 5 2 11 7 17 11 16 10 19 12 15 10 22 14 24 15 18 11 14 9 16 10 23 14 21 13 23 15 3 4-11 7-17 11-26 17-5 1-8-6-11-7-17-11-46-30-25-16-12-8-29-19-14-9-18-12-16-10-5 2-17 11-22 14-18 12-25 16-26 17-17 11-61 39-9 6-4-1-33-22-17-11-3-4 39-26 16-10 22-14 32-21 20-13 22-14 15-10 22-14 15-10 17-11 19-12 3-2v-70l-6-3-8-7-4-8-2-9v-7l4-13 9-10 8-4z" fill="#D89BFE"/>
<path transform="translate(303,903)" d="m0 0 7 1 17 12 19 13 16 11 20 14 19 13 45 31 12 8 14 10 33 22 4 2 17-12 32-22 54-37 17-12 15-10 17-12 32-22 14-10h6l29 19 21 14v4l-129 86-16 11-15 10-16 11-54 36-13 9h-2l1 64 9 6 6 7 4 9 1 5v10l-3 10-7 10-10 6-4 2h-16l-12-6-8-8-4-8-1-5v-12l3-10 4-6 9-8 5-3v-64l-17-12-31-21-23-16-24-16-25-17-78-52-40-27-3-2 2-4 27-18 10-7z" fill="#6627D0"/>
<path transform="translate(361,602)" d="m0 0h1v75l5 1 15 10 20 13 11 8 24 15 69 46 7 4-16-11-17-11-13-10-7-4v-2l-5-2-8-6v-2l-3-1 3-2 7 1 10 3 14 6 5 3 17 5 19 2 27 2 15 2 12 1 4-2-11-7 3-1 16 11v2l4 1 18 12 25 17 8 5v2l5 2 6 4v38h2l1 8h2v22l-11 8-11 7-23 16-15 10-16 11-33 22-13 9-15 10-7 5-6-1-39-26-17-12-17-11-32-22-40-27v-84l11 6 11 8 12 8 19 13 16 11 28 19 17 12 23 16 12 8 11-7 14-10 12-8 20-14 14-10h2l-5-5-20-13-48-32-44-29-15-10-29-19-60-40-1-1z" fill="#6627D0"/>
<path transform="translate(136,457)" d="m0 0h13l8 3 6 4 6 7 4 8 1 5v12l14 8 21 13 19 12 13 8 19 12 10 7 18 12 2 2v319l-5 4-25 16-15 10-14 9-19 12-20 13-18 12-3 15-4 8-7 7-8 4-4 1h-12l-12-5-8-8-5-10-1-4v-11l4-11 9-10 7-4 4-1h15l9 4 3 2 5-1 26-17 22-14 13-9v-344l-8-6-12-8-17-11-19-12-8-5-12 6-5 1h-7l-10-3-8-6-6-7-4-10v-12l3-10 6-8 8-6z" fill="#6627D0"/>
<path transform="translate(867,457)" d="m0 0h9l9 3 6 4 8 9 4 13-1 12-6 12-4 5-12 6-10 1-10-2-8-4-9 6-19 12-16 10-17 11-3 2-1 346 5 2 22 14 34 22h4l8-4 4-1h14l10 4 9 9 4 8 1 5v12l-4 11-6 8-8 5-5 2h-13l-11-4-9-8-5-10-2-14-39-26-29-19-27-18-17-11-1-1v-318l10-7 11-7 41-26 17-11 21-13 15-10v-15l4-11 5-6 7-5z" fill="#6627D0"/>
<path transform="translate(849,544)" d="m0 0h37v359l-16 8-13 5-4 2-5-1-12-8-18-14-6-4-1-2v-320l10-7 17-11zm-3 47-2 2v273l4 4 5-1 1-3v-272l-2-3z" fill="#3C0B9D"/>
<path transform="translate(131,544)" d="m0 0h36l16 10 20 13 1 1v321l-5 5-16 12-15 11-5 1-26-12-6-4zm34 47-2 2v274l2 2h5l2-3v-273l-2-2z" fill="#3C0B9D"/>
<path transform="translate(442,295)" d="m0 0 5 1 7 5 9 5 4 3 1 8v38l-5 5-30 19-19 12-21 13-10 7-24 15-19 12-24 15-17 11-19 12-16 10-25 16-9 6-6-1-26-15-6-4v-33l3-5 21-13 24-15 22-14 38-24 18-11 17-11 40-25 22-14 23-14 15-10zm-32 56-11 6-38 24-24 15-38 24-16 10-18 11-22 14-4 3 1 4 5 1 18-11 16-10 19-12 18-11 17-11 18-11 40-25 19-12 5-4-1-4z" fill="#9D5AF7"/>
<path transform="translate(567,295)" d="m0 0 5 2 18 11 19 12 26 16 25 16 21 13 14 9 18 11 22 14 48 30 23 14 10 7 2 2v36l-8 6-14 8-9 6-5-1-21-13-17-11-24-15-22-14-24-15-13-8-24-15-17-11-16-10-19-12-23-15-15-10-1-1v-47l5-5zm34 57-4 2 2 4 22 14 23 14 19 12 26 16 22 14 26 16 17 11 14 8 5-1v-5l-23-14-22-14-21-13-38-24-23-14-19-12-16-10-7-4z" fill="#9D5AF7"/>
<path transform="translate(230,951)" d="m0 0 4 1 69 46 44 29 54 36 16 11 30 20 19 13 2 2v47l-16 10-5 3-5-1-17-11-23-15-21-14-23-15-27-18-16-10-26-17-34-22-32-21-25-16-1-1v-35l18-13 11-7zm14 43-3 3 1 4 9 7 44 29 18 12 32 21 24 16 28 19 17 11 4-1v-5l-8-7-24-16-11-8-16-10-17-12-16-10-28-19-15-10-17-11-12-8-8-5z" fill="#3C0B9E"/>
<path transform="translate(783,951)" d="m0 0 5 1 10 7 18 12 2 2v37l-16 10-15 10-32 21-27 18-17 11-44 29-45 30-26 17-21 14-8-4-15-10-1-2v-46l10-7 12-8 25-17 12-8 19-13 25-17 45-30 13-9 30-20 16-11 12-8zm-14 44-12 7-11 8-90 60-10 7-15 10-16 11-12 8-8 6-2 2 1 5h6l54-36 43-29 54-36 16-11 7-5 1-6-1-1z" fill="#3C0B9E"/>
<path transform="translate(498,427)" d="m0 0 2 1-3 3-7 4-16 10-21 14-1 3 37-24 18-11 5 1 16 10 21 14 22 14 18 12 25 16 15 10 8 5-1-1-1-3-5-2-6-4v-2l-5-2-8-5-3-1v-2l-5-2-3-2v-2l-5-2-5-3 3-1 15 3 16 4 28 5 2 1 15 1 13 3 13 1 11 3 6 1 18 11 19 12 6 4v2l8-3 1 2-11 7-17 11-26 17-5 1-8-6-11-7-17-11-46-30-25-16-12-8-29-19-14-9-18-12-16-10-5 2-17 11-22 14-18 12-25 16-26 17-17 11-61 39-9 6-4-1-33-22-17-11-3-4 39-26 16-10 22-14 32-21 6-4 2 1v3l7-1 1 2h8l9-2 13-6 22-8 22-3 14 1 19-3 7-3z" fill="#C585FD"/>
<path transform="translate(361,777)" d="m0 0h1v82h2v-12l1-3 4-2 16 4 6 2 8 4 17 4 3 2 13 3 25 5 6 1h9l3-3 3-1v2l4 1v2h3v2h3v2l5 2 5 3v2l5 2 6 4 4-1 5-4h2v-2l15-10 16-11 15-10 17-12 3 1-6 5h-2v2h-2l-1 6 1 2h11l5-2 9-3 9-2 35-3 5 1 1 14-3 6 6-1v-21h2v22l-11 8-11 7-23 16-15 10-16 11-33 22-13 9-15 10-7 5-6-1-39-26-17-12-17-11-32-22-40-27z" fill="#3C0B9D"/>
<path transform="translate(136,457)" d="m0 0h13l8 3 6 4 6 7 4 8 1 5v12l14 8 21 13 19 12 13 8 19 12 10 7 18 12 1 1v287h-1l-1-72-1 53h-1l-1-76-1-109-4 1h-6l-2-1h-15l-7 1-9-2-5-4-1 117-1 5-2-1-1 68h-1l-1-281-5-4-25-16-19-12-14-9-1-2-10 6-3 1h-16l-8-3-9-8-4-7v-2h-2l-1-3v-12l3-10 6-8 8-6z" fill="#C585FD"/>
<path transform="translate(849,544)" d="m0 0h37l-1 206-1 55h-1l-1-69-2-4-1-13-4-2-6 2h-11l-2 46h-1v-171h-2l-1-2h-6l-1 1-2 80-1 167h-1l-1-107-1-8-15 2-9 2-1 112v31l-1 8h-1v-312l26-17z" fill="#8543E8"/>
<path transform="translate(131,544)" d="m0 0h36l16 10 20 13v237l-2-4v-72l-8-1-1-1h-12l-3 1-1 9-1 31h-1l-1-39-1-96v-40l-2-3h-7l-1 169-1 9h-1v-16l-1-30-6 4-12 3-6 3-1 63-1 38h-1z" fill="#8442E8"/>
<path transform="translate(506,505)" d="m0 0 5 1 39 26 20 13 42 28 14 9 21 14 8 6 1 2v30l-1 42-2 2-1-5-1-21-1-44h-2l-1-3-6-1-8-1-9-3-8-3-14-5-7-2-11-3-18-4-14-2-10-2-12-2-13-2-9-1-16 4-42 10-14 4-6 4-22 3-11 2-14 3h-6l-3-3-7 5-1 2h-2v18l-1 38h-1l-1-63 18-12 23-15 21-14 20-13 18-12 41-27z" fill="#C686FE"/>
<path transform="translate(867,457)" d="m0 0h9l9 3 6 4 8 9 4 13-1 12-3 7-10 10-8 4-5 1h-9l-11-4-4-2-22 14-18 11-22 14-3 2-1 192-1 150h-1l-1-114-1 57h-1l-1-35-1-192-9 1h-12l-9 3-8 4h-7l-1-9-1 130h-1l-1-5-2 3-1-42-1-127 10-7 11-7 41-26 17-11 21-13 15-10v-15l4-11 5-6 7-5z" fill="#C585FD"/>
<path transform="translate(779,583)" d="m0 0h1v159l-1 49-16-2-8 2-13 2h-6l-2-2-1-9-1 106-5-2v-188l3-4 1 43 1-125 2-4v13l9-2 10-5 11-1h8l6-1z" fill="#8543E9"/>
<path transform="translate(369,668)" d="m0 0 23 1 7 1 21 2 6 2 12 2 4 1h12l8 3 7 3 10 3 6 4 7-1-3-3 4 1 3 2v2h3v2l4 1 10 6v2h3v2l4 1 8 5v2l4 1 6 5h3l-2-6 4 2 11 7 12 8 22 15 33 22 14 10 20 13 1 2v49h-2v19h-1v-27h-2v-38l-5-2-6-4v-2l-5-2-28-19-19-13-3-1-4-4-12-8 5 4 4 4-7 2-13-1-12-2-29-2-17-2-17-5-6-3-1-2-5-1-7-3-10-3-7-1-2 1 2 1v2l4 2 9 6v2l6 2 11 9 17 11 19 13 1 2-5-2-72-48-19-12-15-10-5-4-4-4-16-11-3-3-6-3-2-4v-5z" fill="#8442E8"/>
<path transform="translate(507,427)" d="m0 0 5 1 16 10 21 14 22 14 18 12 25 16 15 10 8 5-1-1-1-3-5-2-6-4v-2l-5-2-8-5-3-1v-2l-5-2-3-2v-2l-5-2-5-3 3-1 15 3 16 4 28 5 2 1 15 1 13 3 13 1 11 3 6 1 18 11 19 12 6 4v2l8-3 1 2-11 7-17 11-26 17-5 1-8-6-11-7-17-11-46-30-25-16-12-8-29-19-14-9-18-12-16-10-5 2-17 11-22 14-18 12-25 16-26 17-17 11-61 39-9 6-4-1-33-22-17-11-2-3 6 2 21 14 10 6 11 6 5 3 5-2 20-13 50-32 17-11 25-16 15-10 17-11 23-15 21-13z" fill="#B371FC"/>
<path transform="translate(283,631)" d="m0 0h1l1 130 1 5h1l1 18 1 72v31l-5 1-1-90-2 1-4-4h-11l-9-1-15-3-7-8-1-20v-116l2-1 4 4 10 2 12-1h9l2 1h9z" fill="#8543E9"/>
<path transform="translate(466,310)" d="m0 0h1l1 7v38l-5 5-30 19-19 12-21 13-10 7-24 15-19 12-24 15-17 11-19 12-16 10-25 16-9 6-6-1-26-15-6-4v-33l2-3v35h3v-26l2-4v2l22-11 9-5 3-2h3v-2l16-6 8-5 9-1 3-2h5l1 4-3 3-9 2v2h-2l-1 3-11 7 3-1 16-10 15-9 19-12 72-45 22-14 10-6 5-1 3 3-1 3-3-2-6 1-57 36-21 13-22 14-21 13-13 8-33 21 1 5h6l15-9 11-7 18-11 11-7 18-11 28-18 3 1-5 3 5 1 7-1 6-1 8 4v4l-5 5-5 3h-2l-1 3-5 2v2l24-15 14-9 15-10 17-10 15-10 19-12 6-4h2z" fill="#8543E8"/>
<path transform="translate(599,349)" d="m0 0 7 1 10 7 42 26 19 12 21 13 18 11 14 9 18 11-3-4h2v-2l5 1 1 1 12 1 4 5 14 5 11 6 11 4 5 2 2-3v33l-9 6 11-6 2-1 1-35h1v36l-8 6-14 8-9 6-5-1-21-13-17-11-24-15-22-14-24-15-13-8-24-15-17-11-16-10-19-12-23-15-15-10 2-1 18 11 10 7 7 4 22 14 24 15 9 6-1-5 3-3 3-1h13l11 3h8l18 11h4l18 11 24 15 19 12 9 5h4v-5l-14-8-41-26-13-8-24-15-19-12-20-12-23-15-14-8-6 1-2 1 1-4z" fill="#8442E8"/>
<path transform="translate(362,778)" d="m0 0 5 2 28 19 19 13 16 11 28 19 17 12 23 16 12 8 11-7 14-10 12-8 20-14 14-10 7-1 1 5-10 6-13 9-15 10-10 7-19 13h-2v2l-8 6-5-1-9-6v-2l-5-2-5-3v-2h-3v-2h-3v-2l-4-1v-2l-6 5h-11l-25-5-17-4-3-2-20-5-6-4-18-4-4-1-3 1-1 15h-2z" fill="#6526CF"/>
<path transform="translate(437,466)" d="m0 0 2 1-11 8-26 17-12 8-5 5h-2v3l-18 11-20 13-25 16-12 8-6-2-4-3-8-4-18-11-15-10-2-2 6-3 9-3 21-14 5-1v-2l8-5 2 1-2 3h9l8-3h3l1-2 15-4 17-4 9-3 10-1h12l20-6 11-1 5-1v-2l11-6z" fill="#B372FC"/>
<path transform="translate(136,457)" d="m0 0h13l8 3 6 4 6 7 4 8 1 5v12l14 8 21 13 19 12 13 8 19 12 10 7 18 12 1 1v287h-1l-1-72-1 53h-1l-1-76-1-188-15-10-17-11-23-15-20-12-4-2v-2l-5-2-4-2v-2l-5-1v-2l-6-2-11-7-3-2-2 5-5 7-12 6h-16l-8-3-9-8-4-7v-2h-2l-1-3v-12l3-10 6-8 8-6z" fill="#DBA7FC"/>
<path transform="translate(779,583)" d="m0 0h1v92l-1 38-4-4h-13l-8-1-9 4-11 4-2 2v-106l2-4v13l9-2 10-5 11-1h8l6-1z" fill="#9E5BF8"/>
<path transform="translate(498,1099)" d="m0 0 4 1 1 2 1 59 1-9h4l1 4v8l1 1v-64h5v66l5 1 8 6 6 8 3 7 1 5v10l-3 10-7 10-10 6-4 2h-16l-12-6-8-8-4-8-1-5v-12l3-10 4-6 9-8 5-3h2v-62z" fill="#D094FB"/>
<path transform="translate(506,505)" d="m0 0 5 1 39 26 20 13 24 16 2 4-3-1-1 2-4-1-11-7-8-6-4-1-2 1-11-1-19-2h-10l-5-1h-10l-19 2-5 1-19 4-18 6-8 1h-2v-2l-12 7-13 9-25 16-12 8-8 6-1 2h-2v18l-1 38h-1l-1-63 18-12 23-15 21-14 20-13 18-12 41-27z" fill="#D89BFE"/>
<path transform="translate(519,427)" d="m0 0 9 1 8 4 9 3 11 1 12 4 16 3 9 2 16 4 10 2 15 1-1-2 6 2 5 4 11 6 9 5 17 11 21 12 2 1v2l5 2-1 2-7-1-6-2-15-1-11-3-15-1-12-3-18-3-16-4-17-3 9 5v2l5 2 3 2v2l5 1 9 6 2 1v2l5 2 6 4 3 3-1 2-19-12-15-10-25-16-18-12-16-10-1-4-19-13-5-4z" fill="#C586FD"/>
<path transform="translate(462,604)" d="m0 0 2 1-10 7-18 12-11 8-2 2v5l9 7 11 7 8 6 9 6 7 4 20 14 5 5 1 2-8 1-9-5-12-4-6-3-9-1h-7l-7-2-9-1-8-2-23-2-3-1-23-1h-2l3 9 6 3 9 7 13 9-2 1-20-13-11-7-3-2h2v-28h2l1-21h14l23-3h12l24-8 1-2 10-3z" fill="#9D5AF7"/>
<path transform="translate(506,581)" d="m0 0 5 1 15 10 17 11 32 21 19 12 2 1-5-5-16-10-17-12-8-6 2-1 15 4 12 6 16 2 11 4 32 5 8 2h2v2l3 1 2 35v10l1 2 1-42h1v48l-5-2-20-12-33-22-23-15-17-11-29-19-18-12-4-2-38 25-17 11-19 12-3 2-4-1v-3l43-28 22-14z" fill="#9D5AF7"/>
<path transform="translate(303,903)" d="m0 0 7 1 17 12 19 13 16 11 20 14 19 13 45 31 12 8 14 10 33 22 4 2 17-12 32-22 54-37 17-12 15-10 17-12 32-22 14-10h6l29 19 21 14-2 3-5-1-8-4-10-6v-2l-5-2-11-7-10-6-6 1-18 13-19 13-25 17-16 11-19 13-17 12-44 30-20 14-14 10-4 3-5-1-8-6-14-9-2-1v-2l-5-2-19-13-8-6-3-1v-2l-5-2-40-28-15-10-17-12-13-9-3-1-4-4-15-10-11-7v-2h-3v-2l-4-2-8-5-6 1-36 24h-8l1-3 24-16 10-7z" fill="#A767F2"/>
<path transform="translate(156,616)" d="m0 0h4l1 16h1v126l-1 9h-1v-16l-1-30-6 4-12 3-6 3-1 63-1 38h-1v-139l2-69 8-1z" fill="#6728D0"/>
<path transform="translate(283,631)" d="m0 0h1v56l-1 30-2 2-5-2-30-1-7-1-1-3-4-1v-64l2-1 4 4 10 2 12-1h9l2 1h9z" fill="#9E5BF8"/>
<path transform="translate(839,613)" d="m0 0h1l1 11 1 104v112h-1l-1-107-1-8-15 2-9 2-1 112v31l-1 8h-1v-91l2-157 1-8 8-1 8-7 7-1z" fill="#6526CF"/>
<path transform="translate(188,619)" d="m0 0h12l1 5 1 73 1 6v101l-2-4v-72l-8-1-1-1h-12l-3 1-1 9-1 31h-1l-1-39v-96l2-4 1-6z" fill="#6627D0"/>
<path transform="translate(134,936)" d="m0 0h15l9 4 7 6 6 11v19l-4 12-7 7-8 4-4 1h-12l-12-5-8-8-5-10-1-4v-11l4-11 9-10 7-4z" fill="#9E5BF8"/>
<path transform="translate(504,233)" d="m0 0 13 2 9 5 8 9 4 11v11l-2 8-3 3-4-1-8 7-7 1-17 1v76h-3v-70l-6-3-8-7-4-8-2-9v-7l4-13 9-10 8-4z" fill="#E4B6FE"/>
<path transform="translate(864,936)" d="m0 0h14l10 4 9 9 4 8 1 5v12l-4 11-6 8-10 4-6 1h-11l-10-4-8-7-4-8-1-5v-17l5-10 2-3h2l1-3 8-4z" fill="#9E5BF8"/>
<path transform="translate(882,617)" d="m0 0h1l1 63h1v70l-1 55h-1l-1-69-2-4-1-13-4-2-6 2h-11l-2 46h-1v-77l2-68 1 2 10-1 5-3 9 1z" fill="#6526CF"/>
<path transform="translate(507,427)" d="m0 0 5 1 16 10 21 14 22 14 18 12 25 16 15 10 43 28 23 15 12 8 5-2 17-10 18-11 15-9 2 2-11 7-17 11-26 17-5 1-8-6-11-7-17-11-46-30-25-16-12-8-29-19-14-9-18-12-16-10-5 2-17 11-22 14-18 12-25 16-26 17-17 11-61 39-9 6-4-1-33-22-17-11-2-3 6 2 21 14 10 6 11 6 5 3 5-2 20-13 50-32 17-11 25-16 15-10 17-11 23-15 21-13z" fill="#420FA2"/>
<path transform="translate(642,508)" d="m0 0 9 2 10 2 17 2 10 3v2l20 1 25 2h14 4l4 2v2l2 1-35 21-13 8-5-2-27-18-10-6-2-4-16-12-7-5z" fill="#9E5BF7"/>
<path transform="translate(442,295)" d="m0 0 5 1 7 5 9 5 4 4-1 46-4 1-1-1-1-45-14-9-5 1-18 11-10 7-17 10-8 5-22 14-38 24-24 15-13 8-17 11-11 7-12 7-10 7-9 5-5 4-7 4-15 9-5 4h-2l-1 32h-3v-36l17-11 21-13 22-14 24-15 22-14 18-11 17-11 40-25 22-14 23-14 15-10z" fill="#D397FE"/>
<path transform="translate(502,1172)" d="m0 0h9l12 6 7 9 2 8v8l-3 9-5 6-9 5-3 1h-9l-10-4-6-5-5-10v-15l4-8 6-6z" fill="#9E5BF8"/>
<path transform="translate(567,295)" d="m0 0 5 2 18 11 19 12 26 16 25 16 21 13 14 9 18 11 22 14 48 30 23 14 10 7 1 1v36l-4 1-1-34-7-4-13-8-10-6-16-10-4-2v-2l-5-2-40-25-23-14-22-14-18-11-23-15-15-9-10-7-3-1v-2l-4-1-18-11-10-7-7 1-10 6-2 4-1 7-1 31-3 4-1-46 5-5z" fill="#D296FD"/>
<path transform="translate(283,598)" d="m0 0h1v33l-1 21-4 1h-6l-2-1h-15l-7 1-9-2-6-4v-44l2-1 6 9 12-1h8l6 4 13 1 1-2z" fill="#B472FD"/>
<path transform="translate(375,506)" d="m0 0 3 1-7 5h-3l-1 3-5 4-7 4-6 4h-2v2l-19 12v2l-20 13-6-2-4-3-8-4-12-7-2-4-9-6-3-3v-2l14-1 13 1 21-2 12-3 3-2 20-4 11-5z" fill="#9D5AF7"/>
<path transform="translate(783,951)" d="m0 0 5 1 10 7 18 12 1 1v36l-4 1-1-34-18-11-8-5-5 1-12 8-43 29-44 29-10 7-81 55-33 22-1 45h-4v-47l5-5 15-10 25-17 12-8 19-13 25-17 45-30 13-9 30-20 16-11 12-8z" fill="#A361F8"/>
<path transform="translate(230,951)" d="m0 0 4 1 69 46 44 29 54 36 16 11 30 20 19 13v48h-3l-1-35-1-9-14-10-81-54-43-29-20-13-27-18-35-23-9-6-6 2-19 13-4 3-1 32-4-2-1-33 18-13 11-7z" fill="#9D5CF0"/>
<path transform="translate(139,464)" d="m0 0h10l8 4 6 7 4 10v7l-4 11-4 5-8 4-3 1h-9l-11-4-7-8-3-7v-9l3-9 6-7 7-4z" fill="#C585FD"/>
<path transform="translate(867,464)" d="m0 0h7l10 3 7 6 4 8v14l-5 10-6 5-8 3h-8l-8-3-7-6-4-8-1-4v-9l4-10 7-6 3-2z" fill="#C686FE"/>
<path transform="translate(506,505)" d="m0 0 5 1 39 26 20 13 24 16 2 4-3-1-1 2-4-1-11-7-8-6-3-1v-2l-5-2-27-18-6-3v-2l-5-2-10-6-3-3h-5l-4 4-12 8-11 7-17 11-24 16-5 4-10 6-10 7-25 16-12 8-8 6-1 2h-2v18l-1 38h-1l-1-63 18-12 23-15 21-14 20-13 18-12 41-27z" fill="#DFAEFD"/>
<path transform="translate(779,583)" d="m0 0h1v33l-1 33-5 1h-10l-16 2-8 4-4-1-4 1v-44l2-4v13l9-2 10-5 11-1h8l6-1z" fill="#B472FD"/>
<path transform="translate(362,778)" d="m0 0 5 2 28 19 19 13 16 11 28 19 17 12 23 16 12 8 11-7 14-10 12-8 20-14 14-10 7-1 1 5-10 6-13 9-15 10-10 7-19 13h-2v2l-8 6-5-1-9-6v-2l-5-2-5-3v-2h-3v-2h-3v-2l-4-1v-2h-3v-2l-4-2-7-5-3-1v-2l-5-2-13-9-12-8-16-11-28-19-17-12-6-3 1 3-1 11-1 37h-1z" fill="#9252EC"/>
<path transform="translate(113,499)" d="m0 0 9 12 9 6 4 1h16l14-7v3l5 2 20 13 16 10 17 11 6 5 1 213 1-8 3 4v140l-20 14-16 10-10 7-7 4-10 7-5 4-2-4-3-3 5-2 26-17 22-14 13-9v-344l-8-6-12-8-17-11-19-12-8-5-12 6-5 1h-7l-10-3-8-6-6-7-2-4z" fill="#9C59F6"/>
<path transform="translate(897,505)" d="m0 0 1 2-6 8-12 6-10 1-10-2-8-4-9 6-19 12-16 10-17 11-3 2-1 346 5 2 22 14 34 22 3 3h-2l-1 3-5-1-9-6-17-11-24-16-7-4-6-5v-99h1l1-23 2 1 1-36 1-192 10-7 16-10 23-14 17-11 12 5 3 1h9l9-3 6-4h2l2-4z" fill="#8E4CED"/>
<path transform="translate(136,457)" d="m0 0h13l8 3 6 4 6 7 4 8 1 5v12l14 8 21 13 11 7-2 4-3 1-11-6v-2l-5-2-4-2v-2l-5-1v-2l-6-2-11-7-3-2-2 5-5 7-12 6h-16l-8-3-9-8-4-7v-2h-2l-1-3v-12l3-10 6-8 8-6zm3 7-9 3-8 7-3 6-1 5v9l5 10 7 6 9 3h9l9-4 5-5 4-8 1-4v-7l-4-10-6-7-8-4z" fill="#DBA1FE"/>
<path transform="translate(838,503)" d="m0 0 4 2-19 12-23 14-14 9-18 12-14 9-15 10-6 3-1 168h-1l-1-5-2 3-1-42-1-127 10-7 11-7 41-26 17-11 21-13 7-3 3 2z" fill="#DFADFD"/>
<path transform="translate(506,581)" d="m0 0 5 1 15 10 17 11 32 21 19 12 42 28 11 7 4 2v2l3 1 1-42h1v48l-5-2-20-12-33-22-23-15-17-11-29-19-18-12-4-2-38 25-17 11-19 12-3 2-4-1v-3l43-28 22-14z" fill="#3F0DA0"/>
<path transform="translate(849,544)" d="m0 0h37l-1 31-2-4-1-5-2 1v-4l-18 1-6 1-13 2-10 5-12 5-5-1 1-4h-3v19l-1 38h-1v-61l26-17z" fill="#9D5AF7"/>
<path transform="translate(516,287)" d="m0 0 3 2-6 2h-15v2l3-1 1 1v76l-10 7-10 6h-2v2l-6 3-18 12-19 12-20 13-16 10-23 15-5 4-5-1v-3l5-5 19-12 20-13 17-11 23-15 20-13 19-12 5-2 1-76 7-1 10-1z" fill="#E5B7FE"/>
<path transform="translate(303,903)" d="m0 0 7 1 17 12 19 13 16 11 20 14 19 13 45 31 1 5v2l4 2 7 5-1 2-8-6-3-1v-2l-5-2-40-28-15-10-17-12-13-9-3-1-4-4-15-10-11-7v-2h-3v-2l-4-2-8-5-6 1-36 24h-8l1-3 24-16 10-7z" fill="#A767F3"/>
<path transform="translate(361,602)" d="m0 0h1v75l5 1 15 10 20 13 11 8 24 15 69 46 29 19 24 16 16 11 9 7 2 2v3l-3 1-5-5-20-13-48-32-44-29-15-10-29-19-60-40-1-1z" fill="#3E0D9F"/>
<path transform="translate(511,293)" d="m0 0 2 4 3-1 1 72 5 2 11 7 17 11 16 10 19 12 15 10 22 14 14 9-4 4-5-2-10-7-11-6-15-10-7-5-8-4-17-11-7-4v-2l-5-2-14-9-20-12-2-1z" fill="#E3B6FD"/>
<path transform="translate(131,544)" d="m0 0h36l16 10 20 13v14h-1l-2-10-4-1-7-4v-2l-5-2h-2l-4 2-40-1-3-1-1 93-1 38h-1z" fill="#A25FF8"/>
<path transform="translate(864,936)" d="m0 0h14l10 4 9 9 4 8 1 5v12l-4 11-6 8-10 4-6 1h-11l-10-4-8-7-4-8-1-5v-17l5-10 2-3h2l1-3 8-4zm2 7-9 4-7 7-2 5v15l4 8 8 7 5 2h13l8-4 7-8 2-7v-10l-4-9-8-7-7-3z" fill="#D194FC"/>
<path transform="translate(525,251)" d="m0 0 4 4 2 6v8l-3 9-6 7-8 4-11 1-11-4-5-5-5-9v-14l3-6 1 2 1 5 7 3h11l8-2 10-1 4-1z" fill="#C484FD"/>
<path transform="translate(233,550)" d="m0 0h1v214l-1 5-2-1-1 68h-1l-1-281-1-3z" fill="#DCA1FE"/>
<path transform="translate(506,579)" d="m0 0 3 1-18 12-22 14-23 15-18 12h-2l1 3 10 6 33 22 22 15 24 16 16 11 7 5 3 5-1 3-4-1-6-5-3-1v-2l-5-2-7-4v-2h-3l-4-4-10-5v-2h-3v-2l-4-2-15-10-14-10-9-5-14-10-15-10-3-3v-5l8-7 30-20 14-8 4-3h2v-2l23-14z" fill="#C282FD"/>
<path transform="translate(472,449)" d="m0 0m3 1m-4 0 1 2h2l-1 3-26 17-25 16-26 17-17 11-61 39-9 6-4-1-33-22-17-11-2-3 6 2 21 14 10 6 11 6 5 3 5-2 20-13 50-32 17-11 25-16 15-10 17-11z" fill="#410FA2"/>
<path transform="translate(539,712)" d="m0 0 4 2 11 7 12 8 22 15 33 22 14 10 20 13 1 2v49h-2v19h-1v-27h-2v-38l-5-2-6-4v-2l-5-2-28-19-19-13-3-1-4-4-17-11-24-16 1-4z" fill="#AA6AF4"/>
<path transform="translate(134,936)" d="m0 0h15l9 4 7 6 6 11v19l-4 10-8 8-6 3-6 1h-11l-4-2v-2l-4-2 5-1 5 1 11-2 6-3 5-4 3-6 1-5v-11l-5-10-6-5-7-2h-9l-10 4-6 7-2 5v13l5 10 7 6-2 1-8-7-5-8-1 3h-2l-1-3v-16l3-9 7-8 8-5z" fill="#D69BFE"/>
<path transform="translate(330,1017)" d="m0 0 5 2 63 42 19 13 30 20 19 13v48h-3l-1-35-1-9-14-10-81-54-22-15-5-5-8-7z" fill="#9554EE"/>
<path transform="translate(762,937)" d="m0 0h2l-1 3-129 86-16 11-15 10-16 11-54 36-13 9h-2v64h-2v-66l5-4 24-15 11-8 22-14 10-7 16-11 144-96z" fill="#4210A3"/>
<path transform="translate(729,694)" d="m0 0h1l1 43 1 5v146l-5-2v-188z" fill="#9451F1"/>
<path transform="translate(643,449)" d="m0 0 4 1 14 8 15 10 10 6 39 24 16 10 20 13 1 3-3 2h-4l-1-2-5-3-24-15-21-13v-2l-6-2-22-13-12-8-11-6-7-4v-6l-3-1z" fill="#D094FC"/>
<path transform="translate(254,937)" d="m0 0 5 2 16 10 13 9 11 7 19 13 6 4 20 13 13 9 45 30 23 16 27 18 14 10 16 11 15 10 1 5-1 62h-1l-1-64-17-12-31-21-23-16-24-16-25-17-78-52-40-27-3-2z" fill="#3F0DA0"/>
<path transform="translate(367,448)" d="m0 0 2 1v3l2 2-19 11-4 4-16 10-22 14-12 8h-2v2l-8 4-15 10-10 5-5 1-1 1h-5l4-4 20-13 15-10 16-10 22-14 32-21z" fill="#D397FD"/>
<path transform="translate(164,480)" d="m0 0 2 1 1 4v7l-4 11-4 5-8 4-3 1h-9l-11-4-7-8-3-7v-9l2-3v6l6 1 8 3 12 2h12l6-1z" fill="#B270FC"/>
<path transform="translate(785,659)" d="m0 0h1v88l-1 150h-1l-1-114-1 57h-1l-1-35v-135h1l1-9 2 1z" fill="#B270FB"/>
<path transform="translate(867,457)" d="m0 0h9l9 3 6 4 8 9 4 13v5h-2v4h-2v-10l-1 1-2 12-4 7-8 7-9 3-10-1-7-3v-2l10 3h8l10-4 5-6 3-7v-14l-4-8-8-6-8-2h-7l-6 2-8 6-4 10v9l3 9 5 6-1 2-7-8-4-12v5l1 2-2 3-1-1-2-16 4-11 5-6 7-5z" fill="#E2B0FE"/>
<path transform="translate(594,562)" d="m0 0 5 2 10 7 17 11 21 14 8 6 1 2v30l-1 42-2 2-1-5-1-21-1-44h-2l-1-3-5-4-10-7-9-6-16-10-16-11 2-4h1z" fill="#C68AF9"/>
<path transform="translate(503,240)" d="m0 0h7l10 4 6 7 1 7-4 2-13 2-5 1h-11l-7-3-2-2v-7l5-5 8-5z" fill="#D89BFE"/>
<path transform="translate(136,457)" d="m0 0h13l8 3 6 4 6 7 4 8 1 5v13h-4v-3h-2l-1 5-6 9-6 4-2-1 7-5 5-10 1-4v-7l-4-10-5-6-8-4h-10l-9 3-7 6-3 6-1 5v12l-2-2-2-7-1 7-2-2v-14l5-10 9-8z" fill="#E2B0FE"/>
<path transform="translate(645,1044)" d="m0 0 2 1-5 5-4 3v3l-22 15-25 17-33 22-1 45h-4v-47l5-5 15-10 25-17 12-8 19-13z" fill="#9252EA"/>
<path transform="translate(849,481)" d="m0 0h1v11l8 1 4 1h22l10-3v-7h1v11l-5 10-6 5-8 3h-8l-8-3-7-6-4-8-1-4v-9z" fill="#B16FFC"/>
<path transform="translate(567,302)" d="m0 0 6 1 13 9 14 9 3 2-1 1 2 2h-10l-9-4h-16l-4 2h-10l-3-2-1-8 3-5 10-6z" fill="#B371FC"/>
<path transform="translate(289,570)" d="m0 0h1v319l-5 4-25 16-15 10-14 9-19 12-20 13-15 10-5 3v-3l13-9 17-11 11-7 10-7 18-11 31-21 15-10h2z" fill="#3E0C9E"/>
<path transform="translate(783,555)" d="m0 0h2l1 104-1 64h-1l-1-61-1 50h-1l-1-42v-114z" fill="#D699FE"/>
<path transform="translate(726,572)" d="m0 0h1l1 314 3 3 12 7 19 13 63 42 13 9h3v12h-1l-1-8-39-26-29-19-27-18-17-11-1-1z" fill="#3E0C9E"/>
<path transform="translate(447 1e3)" d="m0 0 5 2 19 13 17 12 18 12 3 1 17-12 10-7 2 1v4l-7 7-17 12-4 3-5-1-8-6-14-9-2-1v-2l-5-2-17-12-5-5-7-5-1-3z" fill="#9E5DF2"/>
<path transform="translate(466,310)" d="m0 0h1l1 7v38l-5 5-30 19-19 12-21 13-10 7-24 15-19 12-24 15-17 11-19 12-16 10-25 16-9 6-6-1-24-14-1-3 5 2 17 10 8 4 5-4 24-15 17-11 11-7 9-6 9-5 9-6 22-14 18-11 17-11 19-12 15-10 15-9 17-11 22-14 6-4h2z" fill="#4D19AC"/>
<path transform="translate(731,567)" d="m0 0 2 1-4 4 1 4 1 32 1 9v125h-1l-1-5-2 3-1-42-1-127z" fill="#D99CFF"/>
<path transform="translate(547,357)" d="m0 0 6 2 24 16 7 4 22 14 24 15 12 8 16 10 10 6 11 7 14 9 10 6 20 13 18 11 22 14 14 9 7 4 5-2 17-10 10-6 1-35h1v36l-8 6-14 8-9 6-5-1-21-13-17-11-24-15-22-14-24-15-13-8-24-15-17-11-16-10-19-12-23-15-15-10z" fill="#3E0C9F"/>
<path transform="translate(113,499)" d="m0 0 9 12 9 6 4 1h16l14-7v3l5 2 20 13 16 10 17 11 6 5v347h-3l1-1v-344l-8-6-12-8-17-11-19-12-8-5-12 6-5 1h-7l-10-3-8-6-6-7-2-4z" fill="#3C0B9D"/>
<path transform="translate(284,650)" d="m0 0h3l1 25 1 55v126h-1l-1-72-1 53h-1l-1-76z" fill="#C080FD"/>
<path transform="translate(584,828)" d="m0 0h4l1 5-10 6-13 9-15 10-10 7-19 13h-2v2l-8 6-5-1-7-5 3-1 1-2 7 1 18-13 15-10 23-16 14-10z" fill="#9352EE"/>
<path transform="translate(897,505)" d="m0 0 1 2-6 8-12 6-10 1-10-2-8-4-9 6-19 12-16 10-17 11-3 2-1 344h-1v-346l10-7 16-10 23-14 17-11 12 5 3 1h9l9-3 6-4h2l2-4z" fill="#3C0B9D"/>
<path transform="translate(783,951)" d="m0 0 5 1 10 7 18 12 1 1v36l-4 1-1-34-18-11-8-5-5 1-12 8-16 11h-3v-3l-5 2 4-4 15-10z" fill="#9D5CF1"/>
<path transform="translate(442,301)" d="m0 0 6 1 13 9-1 10-6-2h-14l-3 2-19 3-4-3 8-7 17-11z" fill="#B472FC"/>
<path transform="translate(466,662)" d="m0 0 9 5 11 8 15 10 31 21 7 5 3 5-1 3-4-1-6-5-3-1v-2l-5-2-7-4v-2h-3l-4-4-10-5v-2h-3v-2l-4-2-15-10-11-8-3-5h3z" fill="#BA7BF7"/>
<path transform="translate(113,953)" d="m0 0 1 3-1 3v19h2l1-4 2 2 4 7 7 6-5-5-4-6-2-5v-8h1l3 12 4 6 3 1 7-1h12l10-1 4-7 1-10v-5l2 1v11l-3 9-4 5-7 4-6 2-9 1-6-1 3 4 3 1h11l8-2 6-4 6-5-2 4-8 7-9 3h-12l-12-5-8-8-5-10-1-4v-11z" fill="#AE70F0"/>
<path transform="translate(849,544)" d="m0 0h37l-1 31-2-4v-22l-32 1-22 14-13 8h-2v19l-1 38h-1v-61l26-17z" fill="#D093FD"/>
<path transform="translate(841,483)" d="m0 0h1l2 15 1-3-1-1v-7l2 2 4 12 6 7 3 1-1 2 11 3 10-1 8-4 7-8 2-7 1-8 3-2v7l-1 4h2l1-4v7l-3 7-10 10-8 4-5 1h-9l-11-4-5-4-4-7v-2l-5 2-4-1-3 3-4-3 10-7z" fill="#D598FE"/>
<path transform="translate(131,544)" d="m0 0h36l16 10 20 13v14h-1l-2-10-4-1-7-4v-2l-5-2-10-6-9-6-31-1-1 32h-1z" fill="#D296FD"/>
<path transform="translate(228,902)" d="m0 0 2 1v1 3l-42 28-7 4-10 7-5 4-2-4-3-3 5-2 26-17 22-14 10-7z" fill="#AD6DF5"/>
<path transform="translate(498,1099)" d="m0 0 4 1 1 2 1 59 1-9h4l1 4v8l-9 2h-4v-62z" fill="#A05FF4"/>
<path transform="translate(784,902)" d="m0 0 7 2 15 10 25 16 17 11 3 3h-2l-1 3-5-1-9-6-17-11-24-16-7-4-3-4z" fill="#A969F2"/>
<path transform="translate(409,569)" d="m0 0 2 1-2 2 5 2-5 4-22 14-12 8-8 6-1 2h-2v18l-1 38h-1l-1-63 18-12 23-15z" fill="#D599FD"/>
<path transform="translate(284,761)" d="m0 0h1l1 5h1l1 18 1 72v31l-5 1z" fill="#9C59F7"/>
<path transform="translate(599,349)" d="m0 0 7 1 10 7 42 26 19 12 21 13 18 11 14 9 19 12 13 8 10 6v2l-6-2-22-14-64-40-19-12-20-12-23-15-14-8-6 1-2 1 1-4z" fill="#4713A9"/>
<path transform="translate(412,348)" d="m0 0h2l3 3-1 3-3-2-6 1-57 36-21 13-22 14-21 13-13 8-33 21-2 2 1-4 10-7 20-13 14-8 22-14 72-45 22-14 10-6z" fill="#4915A9"/>
<path transform="translate(230,951)" d="m0 0 4 1 4 4h-3-2l10 7-2 1-9-6-6 2-19 13-4 3-1 32-4-2-1-33 18-13 11-7z" fill="#9F5DF6"/>
<path transform="translate(286,574)" d="m0 0 2 2v24l1 57v73h-1l-1-58-1 28h-1l-1-50v-38h2z" fill="#D99CFF"/>
<path transform="translate(536,1186)" d="m0 0 2 3 1 5v10l-3 10-7 10-10 6-4 2h-16l-12-6-8-8-2-3 1-3 7 9 9 6 8 1 1-2 12-2 10-6 4-5 4-9 3-3-1 10 2-11z" fill="#B071F3"/>
<path transform="translate(482,1193)" d="m0 0h1l2 13 2 5h7l13 3 19-2 1 2-5 5-7 4-3 1h-9l-10-4-6-5-5-10z" fill="#8341E7"/>
<path transform="translate(362,778)" d="m0 0 5 2 28 19 5 5-1 2-2-1v2l2 1-5-1-17-12-7-5-6-3 1 3-1 11-1 37h-1z" fill="#9F5FF0"/>
<path transform="translate(644,783)" d="m0 0 5 2 6 4 1 2v49h-2v19h-1v-27h-2v-38l-5-2-6-4v-3l2-1h2z" fill="#8C4CE8"/>
<path transform="translate(231,704)" d="m0 0h1l1 8h1v52l-1 5-2-1-1 68h-1v-103z" fill="#B775FD"/>
<path transform="translate(231,642)" d="m0 0h1l1 11h1v59l-2 3-1 1-1 17h-1v-69z" fill="#CA8BFE"/>
<path transform="translate(729,694)" d="m0 0h1l1 43 1 5v54h-2l-1 10h-1l-1-38v-70z" fill="#AE6BFB"/>
<path transform="translate(692,1014)" d="m0 0 2 1-1 4-24 16-28 19-2 1-2-2 8-6 3-5 24-16 16-11z" fill="#9A59F0"/>
<path transform="translate(475,258)" d="m0 0h1l1 16 5 10 3 2-6-9 1-3v2h2l6 8 9 6v76h-3v-70l-6-3-8-7-4-8-2-9v-7z" fill="#BD7EFB"/>
<path transform="translate(168,961)" d="m0 0 2 2 1 13-4 10-8 8-6 3-6 1h-11l-4-2v-2l-4-2 5-1 5 1 11-2 7-2 6-5 4-11 1-9z" fill="#C88AFD"/>
<path transform="translate(232,954)" d="m0 0 5 2h3l48 32-2 1-6 1-37-25-4-4-7-5z" fill="#9A59ED"/>
<path transform="translate(330,1017)" d="m0 0 5 2 24 16 28 19-2 2-4 1-37-25-5-5-8-7z" fill="#9656EC"/>
<path transform="translate(813,591)" d="m0 0h1l1 45-2 153h-1v-160z" fill="#9552F1"/>
<path transform="translate(185,935)" d="m0 0 2 1-4 9-1 2h-2v4l5 1v3l-10 7-3 1 1 7-2 10-3 6-1-2 3-8v-19l-3-6 1-4 10-7z" fill="#803FE4"/>
<path transform="translate(727,641)" d="m0 0 3 2 1 38 1 4v57h-1l-1-5-2 3-1-42z" fill="#C483FD"/>
<path transform="translate(200,569)" d="m0 0h1l2 12v122h-1l-1-6-1-113-1-13z" fill="#904EEF"/>
<path transform="translate(849,544)" d="m0 0h37l-1 31-2-4v-22l-32 1-6 3v-3l-2-2z" fill="#D094FE"/>
<path transform="translate(163,960)" d="m0 0 2 1v11l-3 9-4 5-7 4-2 1h-14l-6-3-6-5-5-10v-8h1l3 12 4 6 3 1 7-1h12l10-1 4-7 1-10z" fill="#8341E6"/>
<path transform="translate(466,310)" d="m0 0h1l1 7v38l-5 5-30 19-19 12-21 13-10 7-4 1 5-5 11-7 17-11 15-9 20-13 17-11h2z" fill="#5F29BB"/>
<path transform="translate(346,399)" d="m0 0 4 1-18 11-12 8-20 12-17 11-10 6-26 16h-6l-1-2 7-1 20-13 9-5 22-14 18-11 17-11z" fill="#AD6DF6"/>
<path transform="translate(849,958)" d="m0 0 1 3v11l5 10h11l14 1 6 1 5-7 2-6h1l-1 8-7 8-8 4h-13l-8-4-7-8-2-5v-15z" fill="#8341E7"/>
<path transform="translate(571,997)" d="m0 0 4 1-3 4h-2l-1 5-11 7-20 14-4 1 5-6-2-1 5-5 16-11z" fill="#A363F1"/>
<path transform="translate(897,505)" d="m0 0 1 2-6 8-12 6-10 1-10-2-8-4-9 6-19 12-16 10-17 11-4 2 1-4 18-11 14-9 18-11 14-9 12 5 3 1h9l9-3 6-4h2l2-4z" fill="#4612A7"/>
<path transform="translate(547,357)" d="m0 0 6 2 24 16 7 4 22 14 24 15 12 8 16 10 2 4-12-7-17-11-24-15-22-14-23-15-15-10z" fill="#4915AA"/>
<path transform="translate(895,978)" d="m0 0h1v5h2l-2 5-4 5-10 4-6 1h-11l-10-4-1-2 2-3 4 1 3 2h16l10-6z" fill="#B676F5"/>
<path transform="translate(782,661)" d="m0 0 2 1v58h-2v57h-1l-1-48v-59h1z" fill="#C180FD"/>
<path transform="translate(286,718)" d="m0 0h1l2 12v126h-1l-1-72-1-18z" fill="#B978FD"/>
<path transform="translate(114,482)" d="m0 0h1l3 13h2l1 4v3l7 8 14 5 2 3-9 1-8-3-9-8-4-7v-2h-2l-1-3v-12h1l1 9z" fill="#C98DF7"/>
<path transform="translate(185,504)" d="m0 0 4 1 25 15 6 4-2 4-3 1-11-6v-2l-5-2-4-2v-2l-5-1v-2l-3-1v-4l-2-1z" fill="#D99FFE"/>
<path transform="translate(563,1102)" d="m0 0m-3 1 3 1v3l-5 3-1 45h-4v-47l2-3z" fill="#9653F1"/>
<path transform="translate(447 1e3)" d="m0 0 5 2 19 13 17 12-4 1v-2h-3l-1-2h-5l-2 1-14-10-5-5-7-5-1-3z" fill="#9C5DEC"/>
<path transform="translate(279,566)" d="m0 0 4 1 6 4v86h-1l-1-66v-15l-1 36h-2l-1-39-3-3z" fill="#E3AFFF"/>
<path transform="translate(436,644)" d="m0 0 6 1 11 8 11 7 2 4-2 1 2 3-6-2-12-8-11-8z" fill="#C98AFD"/>
<path transform="translate(698,421)" d="m0 0 5 1 21 13 19 12 21 13 4 2h4l3-5h1v7l-7 2-14-8-34-21-11-7-12-8z" fill="#A866F7"/>
<path transform="translate(477,1200)" d="m0 0 3 1 5 13 6 5v2l5 2 8 2v3 1h-7l-8-4-8-7-3-4v-2h-2l-1-6h2z" fill="#BD7DF9"/>
<path transform="translate(511,1101)" d="m0 0h5v18l-1 33-2-1-1-17h-1z" fill="#9F5DF8"/>
<path transform="translate(783,555)" d="m0 0h2v93h-1l-1-87-1 67h-1v-72z" fill="#E9B9FF"/>
<path transform="translate(435,469)" d="m0 0m-1 1 1 2-5 5-18 12-25 16-4 2v-2l11-9 19-12 16-11z" fill="#C889FD"/>
<path transform="translate(660,428)" d="m0 0 8 4 11 7 14 9 10 6 20 13 18 11 2 4-12-7-22-14-24-15-22-14-3-2z" fill="#4411A5"/>
<path transform="translate(113,499)" d="m0 0 9 12 9 6 4 1h16l14-7v3l5 2 11 7-1 3-15-10-2-1-12 6-5 1h-7l-10-3-8-6-6-7-2-4z" fill="#4E19AF"/>
<path transform="translate(623,651)" d="m0 0 13 3 5 3 9 4h1v11l-7-6-16-10z" fill="#8543E9"/>
<path transform="translate(801,967)" d="m0 0 5 2 9 6 2-1v34l-4 1-1-34-11-7z" fill="#A664F9"/>
<path transform="translate(736,922)" d="m0 0h6l21 14-2 3-5-1-8-4-8-5-1-3-3-2z" fill="#9756EF"/>
<path transform="translate(385,1055)" d="m0 0 5 1 14 9 4 3 2 7-5-2-22-15-1-2z" fill="#9857EE"/>
<path transform="translate(228,926)" d="m0 0m-1 1m-2 1h2l-2 4-16 10-17 11-15 10-5 3v-3l13-9 17-11 11-7 10-7z" fill="#3E0D9F"/>
<path transform="translate(182,554)" d="m0 0 12 7 9 6v14h-1l-2-10-4-1-7-4v-2l-5-2-4-3v-3h2z" fill="#C484FD"/>
<path transform="translate(475,258)" d="m0 0h1l1 16 5 10 8 7 6 3v68h-1l-1-66-6-3-8-7-4-8-2-9v-7z" fill="#3C0B9D"/>
<path transform="translate(378,411)" d="m0 0 2 2-26 16-25 16-19 12h-2v-2l18-11 11-7 14-9 19-12z" fill="#4A16AB"/>
<path transform="translate(592,477)" d="m0 0 8 4v2l5 2 3 2v2l5 1 9 6 2 1v2l5 2 6 4 3 3-1 2-19-12-27-18-1-2z" fill="#C485FC"/>
<path transform="translate(194,928)" d="m0 0 2 1-8 6-7 4-10 7-5 4-2-4-3-3 5-2 6-4 8-2 2-2 6-1z" fill="#BA7BF8"/>
<path transform="translate(227,491)" d="m0 0h5v2h2l-2 9-2 1v3l-2 1-2-1v-4l-5-2-4-4 4-3z" fill="#6627D0"/>
<path transform="translate(137,943)" d="m0 0h9l3 2 3 3-2 3-12 1-3-1h-5l-1-3 8-4z" fill="#B472FD"/>
<path transform="translate(359,1036)" d="m0 0 4 2 24 16-2 2-4 1-13-9-5-5-3-2z" fill="#8F50E7"/>
<path transform="translate(158,989)" d="m0 0 2 1-4 3 1 2-4 2-6 1h-11l-4-2v-2l-4-2 5-1 3 1h12z" fill="#B675FC"/>
<path transform="translate(230,951)" d="m0 0 4 1 4 4h-3-2l10 7-2 1-9-6-6 2-7 5-3-1v-1l-4 2 3-5 11-7z" fill="#A261F2"/>
<path transform="translate(475,1023)" d="m0 0h5l1 3h3v2h6l12 12-5 1-14-9-2-1v-2l-5-2-2-3z" fill="#9F5DF5"/>
<path transform="translate(622,768)" d="m0 0 4 2 18 12 2 4-5-1 1 2-5-2-11-7-2-3v-2z" fill="#A565F1"/>
<path transform="translate(846,964)" d="m0 0h1l2 10 4 8 7 6 5 2h13l8-4 6-7 2-2-1 5-4 5-10 6h-16l-9-7-6-7-3-11z" fill="#D69BFE"/>
<path transform="translate(510,581)" d="m0 0 6 1 13 9 10 6 3 1v2h2v3l5 2 8 6h-3l-22-14-21-14z" fill="#C07FFC"/>
<path transform="translate(844,960)" d="m0 0 2 1v7l4 13 7 7-2 4-5-2-4-5-3-6v-13z" fill="#C383FC"/>
<path transform="translate(367,605)" d="m0 0 1 3-1 16-2 6-1 46h-2l1-50 1-18h2z" fill="#C181FD"/>
<path transform="translate(710 1e3)" d="m0 0 4 1-2 2v3l-16 11-4-1v-1l-2-1 16-11z" fill="#9B5BEE"/>
<path transform="translate(367,448)" d="m0 0 2 1v3l2 2-17 10h-2v-2l-2-1 5-5z" fill="#DEABFD"/>
<path transform="translate(765,963)" d="m0 0 4 1-3 3v3l-13 9h-3v-3l-5 2 4-4 15-10z" fill="#9D5CF0"/>
<path transform="translate(278,920)" d="m0 0 2 1-3 4v4l-11 7h-8l1-3 12-8z" fill="#9757EC"/>
<path transform="translate(506,579)" d="m0 0 3 1-18 12-14 9h-3l1-3 5-2v-2l23-14z" fill="#C586FD"/>
<path transform="translate(897,505)" d="m0 0 1 2-6 8-12 6-10 1-10-2-8-4-8 5v-3l9-5 5 3 9 3h9l9-3 6-4h2l2-4z" fill="#521DB1"/>
<path transform="translate(288,435)" d="m0 0 3 1-5 4-39 24h-6l-1-2 7-1 20-13 9-5z" fill="#AE6DF7"/>
<path transform="translate(114,981)" d="m0 0 4 5 8 7 10 4h11l8-2 6-4 6-5-2 4-8 7-9 3h-12l-12-5-8-8-2-3z" fill="#4E19AF"/>
<path transform="translate(262,974)" d="m0 0 7 1 10 7 9 6-2 1-6 1-9-6v-2l-9-6z" fill="#9252E9"/>
<path transform="translate(181,524)" d="m0 0 11 6 34 22 3 3v2l-4-2-30-20-14-9z" fill="#4612A7"/>
<path transform="translate(318,1009)" d="m0 0 5 2 7 5 2 4 5 4v2l5 2 2 3-5-2-19-13-3-6z" fill="#9D5CF1"/>
<path transform="translate(692,1014)" d="m0 0 2 1-1 4-12 8-7 4v-3l5-7 9-6z" fill="#9A59EE"/>
<path transform="translate(423,633)" d="m0 0h2v3l6 2 7 5v3l-1 3-5-2-9-7-1-1v-5z" fill="#BE7FF9"/>
<path transform="translate(477,1212)" d="m0 0 4 4 5 6 8 5 7 2h14l10-5 2 1-8 5-4 2h-16l-12-6-8-8-2-3z" fill="#4914AC"/>
<path transform="translate(856,989)" d="m0 0 4 1 3 2 16 1-1 3-8 1-5 1-10-4-1-2z" fill="#B271FB"/>
<path transform="translate(533,281)" d="m0 0 1 2-7 8-9 6-1 63h-1v-65l5-3 9-7z" fill="#5D21C5"/>
<path transform="translate(447 1e3)" d="m0 0 5 2 17 12-3 4-3-4 1-2-5 1-12-8-1-3z" fill="#9655EB"/>
<path transform="translate(516,874)" d="m0 0 2 1v4l2 1-8 6-5-1-7-5 3-1 1-2 7 1zm0 3 1 2z" fill="#8241E5"/>
<path transform="translate(480,440)" d="m0 0m-1 1 2 3-15 10-11 7-4 2 2-5 15-10z" fill="#D195FD"/>
<path transform="translate(698,421)" d="m0 0 5 1 34 21v2l-5-1-22-14-12-8z" fill="#AB6AF6"/>
<path transform="translate(842,977)" d="m0 0 2 2 5 9 8 6 8 3h11l8-2 6-2-4 4-7 3h-13l-11-4-9-8-4-7z" fill="#3C0B9D"/>
<path transform="translate(651,623)" d="m0 0 2 1 1 24v27l-2-2-1-21z" fill="#C585FD"/>
<path transform="translate(814,456)" d="m0 0h2l1 31-4 1v-28z" fill="#C787FD"/>
<path transform="translate(730,429)" d="m0 0 5 2 14 9 13 8 10 6v2l-6-2-22-14-14-9z" fill="#4E19AE"/>
<path transform="translate(600,360)" d="m0 0 5 1 21 13 15 9v3l-4-2-20-12-17-11z" fill="#BE7EFC"/>
<path transform="translate(172,497)" d="m0 0 6 1 8 5-1 3 3 1-1 3-4-1-10-6z" fill="#DEA9FE"/>
<path transform="translate(233,862)" d="m0 0h1v42l-7 2 2-4v-8l1-6h2z" fill="#8D4AED"/>
<path transform="translate(661,398)" d="m0 0 5 1 23 14 6 4 1 3-5-2-15-9h-4v-3l-11-7z" fill="#B372F8"/>
<path transform="translate(599,349)" d="m0 0 7 1 10 7 18 11-1 3-20-13-9-5-6 1-2 1 1-4z" fill="#4915A9"/>
<path transform="translate(512,1133)" d="m0 0h1l1 18 1 1v14h-5l1-32z" fill="#B574FD"/>
<path transform="translate(232,861)" d="m0 0 2 1-1 37h-1v-11h-2v6h-1v-27h2v10z" fill="#9E5BF8"/>
<path transform="translate(530,1208)" d="m0 0 1 3-4 6-8 6-8 3h-7l-10-3-3-2v-2l12 4h9l9-4 5-5z" fill="#DDA6FE"/>
<path transform="translate(494,1032)" d="m0 0 5 2 8 6 5-2h3l-5 4-2 1 1 3-4 1-7-6 2-2-5-4z" fill="#9657E7"/>
<path transform="translate(412,358)" d="m0 0 3 1-16 10-15 10-5 2 2-4 18-11z" fill="#C080FC"/>
<path transform="translate(425,564)" d="m0 0 2 1-9 7-3 2-7-1 3-5 5-3h7z" fill="#E2AFFE"/>
<path transform="translate(199,490)" d="m0 0 5 2 17 10 8 4 3-3h2l-1 3-3 2-6-1-24-14z" fill="#410FA1"/>
<path transform="translate(762,523)" d="m0 0 2 2-11 7-17 11v-3l3-3 18-11z" fill="#4F1AAE"/>
<path transform="translate(306 1e3)" d="m0 0 5 2 7 5 1 5 1 2-5-2-12-8-1-2 5 1z" fill="#9555E9"/>
<path transform="translate(571,997)" d="m0 0 4 1-3 4h-2l-1 5-5 1-3 1v-2l-4 1 5-5z" fill="#9758EA"/>
<path transform="translate(549,1015)" d="m0 0 1 2-2 1 2 1-9 7-5 3-2-1 5-5-2-1 5-5z" fill="#A867F4"/>
<path transform="translate(549,327)" d="m0 0h1v25l-3 4v-22z" fill="#CD8FFE"/>
<path transform="translate(574,1092)" d="m0 0 2 1-4 5v3l-8 5h-2v-2l-5 1 4-4 12-8z" fill="#8D4DE6"/>
<path transform="translate(660,428)" d="m0 0 8 4 11 7 14 9 2 3-5-2-24-15-6-4z" fill="#420FA3"/>
<path transform="translate(645,1044)" d="m0 0 2 1-5 5-4 3v3l-7 4-1-3-2-1 11-8z" fill="#8F50E5"/>
<path transform="translate(405,489)" d="m0 0 2 3-23 15-1-2 11-9z" fill="#C080FC"/>
<path transform="translate(774,957)" d="m0 0h5v3l-4 4-8 5-2-2 3-3-1-2z" fill="#9554EC"/>
<path transform="translate(362,786)" d="m0 0 3 1-1 14-1 37h-1z" fill="#8E4CEE"/>
<path transform="translate(700,410)" d="m0 0 5 2 14 9 11 7v2l-5-2-21-13-4-3z" fill="#4915A9"/>
<path transform="translate(573,620)" d="m0 0 12 7 11 8 1 3-5-2-18-12z" fill="#AF6DFB"/>
<path transform="translate(265,482)" d="m0 0m-1 1v3l-25 16-5 3 2-4 14-9z" fill="#4916A7"/>
<path transform="translate(723,993)" d="m0 0 2 1-1 4-11 7-2-2 2-2-1-2 6-4z" fill="#9E5DF2"/>
<path transform="translate(743,480)" d="m0 0 11 6 15 10 7 5-1 2-23-15-9-6z" fill="#4411A4"/>
<path transform="translate(340,435)" d="m0 0v3l-24 15-6 4h-2v-2l18-11 11-7z" fill="#4310A4"/>
<path transform="translate(637,446)" d="m0 0 7 2v3l2 1 1 4-3 1-9-6-1-4h3z" fill="#DDAAFC"/>
<path transform="translate(731,567)" d="m0 0 2 1-4 4-1 52h-1l-1-53z" fill="#D396FE"/>
<path transform="translate(615,493)" d="m0 0 5 2 4 2v2l5 2 6 4 3 3-1 2-19-12-3-3z" fill="#BE7EFC"/>
<path transform="translate(630,1056)" d="m0 0 2 1-1 4-11 7h-2l2-5 5-5z" fill="#A05FF3"/>
<path transform="translate(827,934)" d="m0 0 5 2 8 5h8l3 3h-2l-1 3-5-1-9-6-7-5z" fill="#BA7AFA"/>
<path transform="translate(436,644)" d="m0 0 6 1 7 5-3 2-2 3-7-5z" fill="#C78AF9"/>
<path transform="translate(547,357)" d="m0 0 6 2 24 16 2 3-5-2-27-18z" fill="#4613A6"/>
<path transform="translate(283,988)" d="m0 0 7 1 5 8 2 2-5-1-11-8z" fill="#A15FF4"/>
<path transform="translate(164,495)" d="m0 0 1 4-6 9-8 4-3 1h-9l-3-2 16-2 6-4 4-5z" fill="#A260F7"/>
<path transform="translate(766,552)" d="m0 0 2 1-2 7-5 1-7 2 1-4z" fill="#CE8FFE"/>
<path transform="translate(547,449)" d="m0 0 12 6 10 8-1 2-19-12z" fill="#D296FD"/>
<path transform="translate(505,1152)" d="m0 0h4l1 4v8h-7z" fill="#8543E9"/>
<path transform="translate(475,1023)" d="m0 0h5l1 3h3v2l4 1-1 4-6-2v-2l-5-2-2-3z" fill="#AC6AFA"/>
<path transform="translate(195,456)" d="m0 0h1l1 7v24h-3z" fill="#C282FD"/>
<path transform="translate(271,432)" d="m0 0h3l-1 3-12 7-9 6-3-1 14-9 1-2h2v-2z" fill="#9A57F5"/>
<path transform="translate(536,1021)" d="m0 0 2 1v4l-7 7-1-4-5 1 5-5z" fill="#9858EB"/>
<path transform="translate(218,961)" d="m0 0v3l-5 5-4 2-5-2 4-4 4-3 2 1z" fill="#9959EF"/>
<path transform="translate(195,922)" d="m0 0 2 1-4 4-15 10-4-1 18-12z" fill="#A265E8"/>
<path transform="translate(729,850)" d="m0 0h1l1 27h1v11l-3-1z" fill="#8543E9"/>
<path transform="translate(284,850)" d="m0 0h1l1 31h3v6l-5 1z" fill="#8644E9"/>
<path transform="translate(809,540)" d="m0 0m-2 1 3 1-5 4-17 11-1-2 3-3z" fill="#4D18AD"/>
<path transform="translate(634,369)" d="m0 0 11 6 15 9-1 3-24-15z" fill="#4A15AB"/>
<path transform="translate(366,627)" d="m0 0h1v18l-1 3h-2v-18z" fill="#B472FD"/>
<path transform="translate(448,615)" d="m0 0 2 2-16 10-5 5-3 1-1 3-1-4 10-8z" fill="#B472FC"/>
<path transform="translate(466,355)" d="m0 0v3l-22 14-4 2 2-4z" fill="#4C17AD"/>
<path transform="translate(893,977)" d="m0 0 1 4-5 6-10 6h-12v-1l11-2 8-4 6-7z" fill="#E1ABFE"/>
<path transform="translate(200,569)" d="m0 0h1l2 12v26h-1l-1-21-1-2-1-13z" fill="#AF6CFB"/>
<path transform="translate(752,440)" d="m0 0h8l2 6 6 3v2l-5-1-11-8z" fill="#9A57F5"/>
<path transform="translate(373,382)" d="m0 0 4 1-21 13h-3l4-4z" fill="#BB7BFA"/>
<path transform="translate(700,1007)" d="m0 0 3 1-2 4-5 5-4-1v-1l-2-1z" fill="#9253E8"/>
<path transform="translate(114,981)" d="m0 0 4 5 8 7 11 5 1 2-10-3-6-4-8-9z" fill="#4F1AAF"/>
<path transform="translate(734,918)" d="m0 0 5 2 1 2h-4l6 6h-4v-2l-5-2-6-4v-1z" fill="#A060F0"/>
<path transform="translate(429,556)" d="m0 0 2 1-2 2-2 5-4 2-5 1-1-3z" fill="#CF95FB"/>
<path transform="translate(638,414)" d="m0 0 11 6 10 7v3l-20-13z" fill="#4F1BAC"/>
<path transform="translate(346,399)" d="m0 0 4 1-18 11-4 2v-3l15-9z" fill="#BD7DFC"/>
<path transform="translate(412,348)" d="m0 0h2l3 3-1 3-3-2-6 1-12 7 2-4 12-7z" fill="#4D18AF"/>
<path transform="translate(511,1101)" d="m0 0h5l-1 17-2-1-2-11z" fill="#8543E9"/>
<path transform="translate(498,1099)" d="m0 0 4 1 1 2v13l-2-1-2 4z" fill="#8543E9"/>
<path transform="translate(194,928)" d="m0 0 2 1-8 6-8 4-4 1v-3l6-4 6-1z" fill="#BC7BFD"/>
<path transform="translate(529,865)" d="m0 0 2 1-3 4v2l-8 5-2-4z" fill="#7C3EDC"/>
<path transform="translate(420,479)" d="m0 0m-1 1 2 3-12 8h-3l2-4z" fill="#C485FC"/>
<path transform="translate(578,376)" d="m0 0 4 2 18 11-1 3-20-13z" fill="#521CB3"/>
<path transform="translate(733,985)" d="m0 0h2l-1 3h-3l-2 5v2l-4 2-2-2h-3l4-4z" fill="#8D4EE3"/>
<path transform="translate(494,431)" d="m0 0m-1 1m-2 1 4 2-12 8h-3l2-4z" fill="#D99FFE"/>
<path transform="translate(475,258)" d="m0 0h1l1 16 5 10 2 3-4-1-4-8-2-9v-7z" fill="#652DC2"/>
<path transform="translate(695,450)" d="m0 0 8 4 15 10v3l-20-13-3-2z" fill="#4916A9"/>
<path transform="translate(592,1080)" d="m0 0 4 1-2 5-5 3-3-1 2-5z" fill="#9857EF"/>
<path transform="translate(842,977)" d="m0 0 2 2 5 9 8 6 6 3-1 2-10-5-8-9-2-4z" fill="#4713A9"/>
<path transform="translate(202,969)" d="m0 0 2 1-2 3h-3v33h-1l-1-33z" fill="#7D3DDF"/>
<path transform="translate(452,612)" d="m0 0 2 1v3l-19 12-4 1 5-4 13-9v-2z" fill="#BC7BFC"/>
<path transform="translate(253,524)" d="m0 0 6 2 15 10-1 3-10-7-9-6z" fill="#4915A9"/>
<path transform="translate(781,493)" d="m0 0 5 1 2 2h-2l-2 5-4-1-1-6z" fill="#6627D0"/>
<path transform="translate(461,327)" d="m0 0h1l1 24 3 3v2l-4 1-1-1z" fill="#B877FC"/>
<path transform="translate(599,349)" d="m0 0 7 1 6 5-1 2-7-4-6 1-2 1 1-4z" fill="#531DB4"/>
<path transform="translate(550,321)" d="m0 0h1v36l-4-1 2-4z" fill="#B573FD"/>
<path transform="translate(306,911)" d="m0 0 6 1 2 5-5 1-5-3v-3z" fill="#8442E8"/>
<path transform="translate(306,424)" d="m0 0 4 1-13 8-5 3h-2v-2z" fill="#B473FA"/>
<path transform="translate(503,1226)" d="m0 0h11l-2 1v2l3 1h-14z" fill="#B16FFC"/>
<path transform="translate(188,952)" d="m0 0m-1 1m-2 1h2l-2 4-11 7-2 1v-3z" fill="#410FA1"/>
<path transform="translate(261,452)" d="m0 0 2 1-3 3-13 8h-6l-1-2 7-1z" fill="#A462F6"/>
<path transform="translate(367,448)" d="m0 0 2 1v3l2 2-6 3-4-2v-3z" fill="#D498FD"/>
<path transform="translate(644,416)" d="m0 0 5 2 15 10 3 3-6-2-15-10z" fill="#9855F4"/>
<path transform="translate(477,1212)" d="m0 0 4 4 5 6 10 7-2 1-8-5-7-7-2-3z" fill="#4713A9"/>
<path transform="translate(480,1195)" d="m0 0h1l3 13 6 9 1 2-4-2-4-5-3-7z" fill="#DEA8FE"/>
<path transform="translate(831,940)" d="m0 0 5 2 8 6-1 2-6-2-5-4z" fill="#8543E9"/>
<path transform="translate(816,565)" d="m0 0 4 1-4 4v2h-2v19h-1v-21-3z" fill="#BE7FFC"/>
<path transform="translate(643,385)" d="m0 0 12 7 4 4h-3l-13-8z" fill="#BB7BFA"/>
<path transform="translate(392,370)" d="m0 0 4 1-15 10-2-1 4-4z" fill="#B979F9"/>
<path transform="translate(563,1102)" d="m0 0m-3 1 3 1v3l-6 4-2 2-1-4 2-2-1-2z" fill="#9E5CF6"/>
<path transform="translate(515,1037)" d="m0 0 2 1-3 4 2 1-6 5h-3v-2h2l-2-4 6-3z" fill="#AD6BFA"/>
<path transform="translate(163,960)" d="m0 0 2 1v11l-3 9-3 3v-3l3-6 1-10z" fill="#8F4DEE"/>
<path transform="translate(231,642)" d="m0 0h1l1 11h1l-1 7-3 1v-11z" fill="#C98AFE"/>
<path transform="translate(852,513)" d="m0 0 10 4-2 3-8-4-8 5v-3z" fill="#5923B6"/>
<path transform="translate(398,398)" d="m0 0v3l-15 10-4 1 5-5 11-7z" fill="#4612A6"/>
<path transform="translate(765,963)" d="m0 0 4 1-3 3v3l-5 3-2-2 3-3-1-2z" fill="#9B5AEF"/>
<path transform="translate(783,951)" d="m0 0 5 1 2 3-5-1-5 2 1 4-2 1-2-2 1-1-2-2z" fill="#8A4CE0"/>
<path transform="translate(275,561)" d="m0 0 4 1 10 7v2l-5-2-2-2-4-1v-2h-3z" fill="#C991F9"/>
<path transform="translate(825,530)" d="m0 0m-2 1 3 1-5 4-10 6-2-1 6-5z" fill="#4714A9"/>
<path transform="translate(439,372)" d="m0 0v3l-17 11-2-1 11-8z" fill="#4613A6"/>
<path transform="translate(222,957)" d="m0 0 2 1-1 4-4 3-3-1v-1l-4 2 3-5z" fill="#AB6AF8"/>
<path transform="translate(167,494)" d="m0 0 1 3-6 10-7 5-2-1 7-5 6-11z" fill="#EBC3FE"/>
<path transform="translate(306,456)" d="m0 0h2l-1 3-16 10-2-1 6-5 9-5z" fill="#4A16A9"/>
<path transform="translate(532,438)" d="m0 0 11 7 2 3-2 1-11-7z" fill="#D094FC"/>
<path transform="translate(626,375)" d="m0 0 5 2 10 6v3l-4-2-10-6z" fill="#BC7CFA"/>
<path transform="translate(533,281)" d="m0 0 1 2-7 8-8 5-3-1 5-3 9-7z" fill="#5620B5"/>
<path transform="translate(449,651)" d="m0 0 9 5 6 4-4 1-12-8z" fill="#AB6FEA"/>
<path transform="translate(722,436)" d="m0 0 5 1 10 6v2l-5-1-10-7z" fill="#B575F9"/>
<path transform="translate(369,396)" d="m0 0h8l1 3-2 1h-10l2-1z" fill="#8543E9"/>
<path transform="translate(457,1008)" d="m0 0 5 1 7 5-3 4-3-4 1-2-5-1z" fill="#8F51E2"/>
<path transform="translate(203,942)" d="m0 0m-1 1m-1 1m-2 1h2l-1 3-11 7-2-1 7-6z" fill="#3E0D9F"/>
<path transform="translate(584,828)" d="m0 0h4l1 5-4 2v-2l-5-2 1-2z" fill="#7F3FE2"/>
<path transform="translate(530,1193)" d="m0 0 2 2v8l-3 9h-3l3-7z" fill="#924FEF"/>
<path transform="translate(577,1090)" d="m0 0 4 1-3 4-5 5h-2l2-4z" fill="#9D5CF2"/>
<path transform="translate(737,984)" d="m0 0 2 1-4 6-6 3v-3l2-3 3-1z" fill="#A562F9"/>
<path transform="translate(758,520)" d="m0 0 4 2v2l-3 2h-4l-1-2-3-2z" fill="#C383FC"/>
<path transform="translate(656,519)" d="m0 0 9 6 4 4-5-1-9-6z" fill="#B06DFB"/>
<path transform="translate(185,504)" d="m0 0 4 1 8 5-4 1-6-1v-3l-2-1z" fill="#CE96FC"/>
<path transform="translate(756,445)" d="m0 0 5 2 9 6 2 1v2l-6-2-10-7z" fill="#4612A8"/>
<path transform="translate(367,375)" d="m0 0m-1 1v3l-14 9-1-3z" fill="#4C18AC"/>
<path transform="translate(647,1044)" d="m0 0 2 1-3 2zm-2 3 2 1v2l-8 5-2-2z" fill="#A462F8"/>
<path transform="translate(661,1033)" d="m0 0 2 1-4 6v2l-4 1v-2l-2-2z" fill="#8E4FE4"/>
<path transform="translate(135,519)" d="m0 0h14l-3 3h-7l-4-1z" fill="#6930C7"/>
<path transform="translate(743,978)" d="m0 0 2 1-4 5v3l-4 2 1-4-3-1z" fill="#884AE0"/>
<path transform="translate(506,579)" d="m0 0 3 1-10 7h-3l2-4 6-3z" fill="#C98AFD"/>
<path transform="translate(896,487)" d="m0 0h1v7l-3 8-4 5-2-1 5-8 2-5z" fill="#E6B4FF"/>
<path transform="translate(812,489)" d="m0 0 2 1-4 4-11 6 2-4z" fill="#4D18AC"/>
<path transform="translate(630,1056)" d="m0 0 2 1-1 4-7 4 2-8z" fill="#9B5AF1"/>
<path transform="translate(314,908)" d="m0 0 4 2 9 6-2 1-5-2-6-4z" fill="#8F55DA"/>
<path transform="translate(165,588)" d="m0 0h5l3 4-1 3-2-3h-5-3l1-3z" fill="#4210A2"/>
<path transform="translate(897,505)" d="m0 0 1 2-6 8-8 4-1-2 8-5h2l2-4z" fill="#5922B9"/>
<path transform="translate(248,493)" d="m0 0m-1 1v3l-12 8v-3l10-7z" fill="#4D19AB"/>
<path transform="translate(450,459)" d="m0 0h2l-1 5-8 4 2-5z" fill="#C888FD"/>
<path transform="translate(698,421)" d="m0 0 5 1 8 5 1 3-5-2-9-6z" fill="#B776FA"/>
<path transform="translate(367,415)" d="m0 0m-1 1m-2 1h2l-2 4-8 5h-2v-2l5-3 3-3z" fill="#9A57F5"/>
<path transform="translate(497,1224)" d="m0 0 7 1v3 1h-7l-2-3z" fill="#C483FD"/>
<path transform="translate(291,991)" d="m0 0 5 2 4 4-3 4-6-9z" fill="#884AE0"/>
<path transform="translate(268,927)" d="m0 0 4 1-8 6-6 1 4-4z" fill="#9254E2"/>
<path transform="translate(604,487)" d="m0 0h4v2l5 1 3 5-5-2-7-5z" fill="#C98BFD"/>
<path transform="translate(378,411)" d="m0 0 2 2-13 8h-2v-2z" fill="#4B17AC"/>
<path transform="translate(680,1022)" d="m0 0 2 1-2 5-6 3v-3l4-5z" fill="#A461F8"/>
<path transform="translate(215,934)" d="m0 0m-1 1m-1 1m-1 1m-2 1h2l-1 3-8 5-2-1 7-6z" fill="#4311A3"/>
<path transform="translate(483,592)" d="m0 0m-1 1m-2 1 4 2-7 5h-3l1-3 5-2z" fill="#C787FD"/>
<path transform="translate(766,554)" d="m0 0 2 1-2 5-5 1-2 1-2-2z" fill="#D99CFF"/>
<path transform="translate(641,450)" d="m0 0 5 2 1 4-3 1-4-4z" fill="#DA9EFF"/>
<path transform="translate(252,447)" d="m0 0m-1 1v3l-11 7-2 2 1-4 10-7z" fill="#410FA1"/>
<path transform="translate(716,420)" d="m0 0 6 3 8 5v2l-5-2-9-6z" fill="#4411A6"/>
<path transform="translate(676,1023)" d="m0 0 2 1-4 6v2l-4 1 2-7z" fill="#9253E7"/>
<path transform="translate(564,616)" d="m0 0 5 1 5 5-1 2-9-6z" fill="#B372FA"/>
<path transform="translate(824,508)" d="m0 0 2 1-5 6-5 2-1-3z" fill="#C088F2"/>
<path transform="translate(841,483)" d="m0 0h1l1 8v9l-6 1 4-4z" fill="#8D50E1"/>
<path transform="translate(901,491)" d="m0 0h1v7l-3 7h-1v-8l1-2h2z" fill="#8E57D5"/>
<path transform="translate(530,1025)" d="m0 0 2 1 3 2-1 3-4 2v-4l-5 1z" fill="#8D4FE3"/>
<path transform="translate(147,997)" d="m0 0h4v2l-3 1h-10l-1-2z" fill="#4511A6"/>
<path transform="translate(651,662)" d="m0 0 2 2v11h-2v-2l-4-1 2-1 2 1z" fill="#9653F3"/>
<path transform="translate(204,515)" d="m0 0 5 2 6 4-4 1-8-5z" fill="#C68EF8"/>
<path transform="translate(460,453)" d="m0 0m-1 1m-2 1 3 1-5 5-4 2 2-5z" fill="#D396FD"/>
<path transform="translate(482,287)" d="m0 0 4 1 8 5v2l-5-1-7-6z" fill="#4C17AE"/>
<path transform="translate(752,972)" d="m0 0 4 1-4 6h-2v-3l-5 2 4-4z" fill="#9354E7"/>
<path transform="translate(776,957)" d="m0 0 3 1-1 4-8 5-2-1 6-4z" fill="#AD6AFA"/>
<path transform="translate(868,945)" d="m0 0h10l2 2-3 2-5-1v-2z" fill="#B472FD"/>
<path transform="translate(263,440)" d="m0 0m-2 1h2l-1 3-10 6 1-4z" fill="#4714A9"/>
<path transform="translate(888,993)" d="m0 0 2 1-6 4-7 2-1-3 8-2z" fill="#541EB4"/>
<path transform="translate(269,929)" d="m0 0m-1 1m-2 1h2l-1 4-1 1h-8l2-2 5-2z" fill="#A664F9"/>
<path transform="translate(839,500)" d="m0 0 2 1-3 1-2 5-5-2 4-4z" fill="#CB93F7"/>
<path transform="translate(288,435)" d="m0 0 3 1-5 4-3 2-4-1z" fill="#A866F6"/>
</svg>
